PathFileType  4	(X/Y/Z) C:\Users\antoi\Documents\MyRepositories\mobilecap\ResultsAnalysis
DataRate	CameraRate	NumFrames	NumMarkers	Units	OrigDataRate	OrigDataStartFrame	OrigNumFrames
100.0	100.0	4	51	mm	100.0	35	137
Frame#	Time	r_knee			r_shank_antsup			r_ankle			r_calc			r_5meta			r_toe			L_knee			L_shank_antsup			L_ankle			L_calc			L_5meta			L_toe			r_sh2			r_sh3			r_sh4			L_sh2			L_sh3			r_thigh1			r_thigh2			r_thigh3			r_thigh4			r_thigh5			L_thigh1			L_thigh2			L_thigh3			L_thigh4			r.ASIS			r.PSIS			L.ASIS			L.PSIS			C7			R_Shoulder			L_Shoulder			R_Sternum			L_Sternum			R_humerus			R_elbow_med			R_elbow_lat			R_forearm			R_wrist_radius			R_wrist_ulna			L_humerus			L_elbow_med			L_elbow_lat			L_forearm			L_wrist_radius			L_wrist_ulna			R_HJC			L_HJC			R_HJC_reg			L_HJC_reg			
		X1	Y1	Z1	X2	Y2	Z2	X3	Y3	Z3	X4	Y4	Z4	X5	Y5	Z5	X6	Y6	Z6	X7	Y7	Z7	X8	Y8	Z8	X9	Y9	Z9	X10	Y10	Z10	X11	Y11	Z11	X12	Y12	Z12	X13	Y13	Z13	X14	Y14	Z14	X15	Y15	Z15	X16	Y16	Z16	X17	Y17	Z17	X18	Y18	Z18	X19	Y19	Z19	X20	Y20	Z20	X21	Y21	Z21	X22	Y22	Z22	X23	Y23	Z23	X24	Y24	Z24	X25	Y25	Z25	X26	Y26	Z26	X27	Y27	Z27	X28	Y28	Z28	X29	Y29	Z29	X30	Y30	Z30	X31	Y31	Z31	X32	Y32	Z32	X33	Y33	Z33	X34	Y34	Z34	X35	Y35	Z35	X36	Y36	Z36	X37	Y37	Z37	X38	Y38	Z38	X39	Y39	Z39	X40	Y40	Z40	X41	Y41	Z41	X42	Y42	Z42	X43	Y43	Z43	X44	Y44	Z44	X45	Y45	Z45	X46	Y46	Z46	X47	Y47	Z47	X48	Y48	Z48	X49	Y49	Z49	X50	Y50	Z50	X51	Y51	Z51	

35	0.34000000	234.56446	543.74687	-39.25700	263.37326	447.98779	-57.70208	178.37106	118.02839	-98.75013	94.44680	75.05043	-144.35544	292.95130	47.12727	-62.75121	349.50137	75.23593	-128.82681	419.33918	577.46028	-377.08173	409.19249	486.76488	-396.11356	288.70845	182.93227	-323.28294	207.09716	145.60344	-259.38445	377.41038	83.34569	-368.95807	447.61292	97.88195	-314.16393	244.17633	337.92301	-41.25676	204.09846	463.59296	-13.33393	165.91429	353.68955	-12.77924	325.04165	516.17952	-379.83091	300.45069	397.44028	-367.22665	321.27172	867.30902	-12.81409	319.85913	756.43083	-23.69890	264.69137	731.62056	6.88262	211.12488	863.48687	10.98646	211.52755	749.54261	-4.54887	368.64082	878.60695	-370.09827	440.01864	757.08787	-367.98444	274.88088	821.75180	-389.03652	342.37270	702.86895	-391.64205	315.12482	1093.28609	-51.78041	130.13940	1083.35868	-111.83061	302.66972	1076.67538	-303.48483	121.11152	1076.85902	-222.17790	219.37464	1619.90598	-282.63043	306.27967	1585.82018	-115.14228	225.79518	1502.74364	-434.16895	326.94708	1520.09494	-249.03583	314.33466	1502.11759	-300.12555	319.08500	1442.91705	-20.23469	217.29875	1246.77506	2.58435	253.88287	1278.17202	72.97898	335.83927	1125.00619	104.14265	386.20248	1041.23982	97.67475	351.25366	1045.11879	129.55598	186.30927	1364.95483	-481.13127	149.95546	1145.17360	-369.83519	139.92874	1144.52778	-452.03507	179.13436	1082.71161	-479.31027	245.24598	915.27833	-482.72345	205.74633	903.81036	-477.61483	247.68217	968.20769	-61.95962	231.39912	960.67950	-268.13629	265.58318	1002.15330	-78.10265	252.01540	992.38429	-243.95725	
36	0.35000000	240.62304	543.24780	-39.05733	268.31195	447.01660	-57.62819	178.73217	118.11921	-98.88966	94.55234	75.09268	-144.43605	292.95170	47.09709	-62.70752	349.62159	75.15795	-128.79521	433.88000	577.24238	-377.57639	428.26656	485.96413	-397.78893	328.22191	174.20830	-327.33801	249.27518	132.02317	-263.29452	421.78318	79.92564	-374.52532	491.66248	97.90587	-320.21063	247.50772	337.12520	-41.30045	209.19765	463.35986	-13.22620	169.59059	353.98819	-12.75828	342.53971	509.43917	-380.50478	326.08400	389.49438	-369.12086	331.02540	866.05454	-11.79037	328.25861	755.14510	-23.15940	272.75150	730.84180	7.23394	220.45718	863.17989	11.56192	219.72103	749.21215	-4.20627	382.68660	879.16756	-369.46418	454.38641	757.80071	-367.58470	288.80825	821.95381	-389.13345	356.74165	703.22399	-391.58346	326.48848	1092.31911	-50.91368	142.03234	1082.65547	-111.93471	315.78592	1075.83285	-302.72951	133.53833	1075.89122	-222.25937	232.79331	1617.89640	-286.74187	321.22101	1585.22783	-119.79134	237.38455	1498.85136	-437.11923	339.98468	1517.99417	-253.14155	327.04165	1499.53006	-303.90926	335.75181	1443.81250	-23.31895	235.59396	1247.30054	4.29970	273.33748	1280.16821	73.58620	359.53476	1129.11566	104.02622	412.20895	1046.99438	97.05656	377.63232	1049.65290	129.28073	196.08228	1360.66712	-481.84974	158.87713	1142.98538	-367.26970	147.53968	1141.44398	-449.18207	184.03935	1078.06047	-476.23088	242.88603	907.92854	-477.89239	203.34548	898.01331	-471.97675	259.19863	967.32833	-61.42487	244.11778	959.80424	-267.69164	277.13592	1001.60121	-77.28442	264.36409	991.42882	-243.19307	
37	0.36000000	246.76142	542.67517	-38.80365	273.27319	445.95009	-57.49938	179.09849	118.19960	-99.01402	94.63885	75.15019	-144.51147	292.95726	47.04836	-62.64953	349.72546	75.06720	-128.75731	447.60443	576.37656	-378.03051	446.58481	484.95302	-399.47550	367.86357	166.47817	-331.71378	291.87819	119.63950	-267.52887	466.08303	77.71032	-380.25689	535.40603	99.20372	-326.44621	250.82820	336.25337	-41.31929	214.35729	463.05376	-13.06284	173.32090	354.24039	-12.69518	359.71508	502.40253	-381.17794	351.49850	381.71826	-371.08030	340.86006	864.65619	-10.91379	336.79707	753.75380	-22.69870	280.99823	729.97424	7.57153	229.98713	862.77925	12.18805	228.10478	748.80268	-3.82513	396.21261	878.90944	-368.80453	467.84602	757.47355	-367.17463	302.19319	821.63910	-388.78142	370.09608	702.86254	-391.16565	338.00174	1091.23186	-50.09645	154.04169	1081.81050	-112.14090	329.00052	1074.71476	-302.02967	146.06013	1074.67104	-222.42373	246.24424	1615.59614	-291.00646	336.17156	1584.35124	-124.58355	249.13016	1494.68493	-440.18723	353.05759	1515.59667	-257.34558	339.82142	1496.64418	-307.79065	352.28151	1444.52251	-26.44401	253.82453	1247.71566	5.86253	292.58233	1282.12510	74.06353	382.95415	1133.29569	103.75154	437.88622	1052.85376	96.20316	403.76240	1054.33652	128.79234	205.99988	1356.17549	-482.65873	167.87834	1140.58159	-364.96123	155.31210	1138.24406	-446.57128	189.11813	1073.40913	-473.27013	240.57424	900.87514	-472.95041	201.13231	892.60954	-466.31004	270.82902	966.32580	-60.88997	256.95227	958.66810	-267.23639	288.80309	1000.96023	-76.42203	276.79320	990.21581	-242.38479	
38	0.37000000	252.96963	542.01766	-38.51610	278.27786	444.78255	-57.31707	179.46714	118.26918	-99.13086	94.71394	75.22398	-144.58651	292.96960	46.98025	-62.58423	349.80274	74.95612	-128.71453	460.63511	574.91477	-378.46447	464.21376	483.79382	-401.13612	407.40488	159.94006	-336.40546	334.60844	108.61270	-272.15744	510.17371	76.89939	-386.04471	578.61076	101.96901	-332.68142	254.15555	335.30953	-41.31568	219.58509	462.66584	-12.87037	177.08799	354.44094	-12.62247	376.61834	495.23420	-381.93404	376.60548	374.24109	-373.15690	350.78805	863.10364	-10.14630	345.50476	752.24591	-22.24204	289.41525	729.00796	7.89996	239.72298	862.27322	12.83440	236.67863	748.31906	-3.42452	409.13862	877.78808	-368.11004	480.35816	756.08454	-366.75856	314.98332	820.76316	-388.00348	382.40200	701.74545	-390.51260	349.71615	1090.00956	-49.37160	166.20131	1080.82709	-112.42133	342.25030	1073.30013	-301.41111	158.68581	1073.20415	-222.64467	259.72607	1613.01240	-295.42208	351.12215	1583.19493	-129.51733	261.06300	1490.25424	-443.37594	366.20685	1512.90827	-261.63856	352.67257	1493.45872	-311.75867	368.68638	1445.04468	-29.62644	271.99921	1248.02580	7.25367	311.59437	1284.03797	74.39546	406.07054	1137.53135	103.30348	463.19606	1058.79222	95.10533	429.56878	1059.16546	128.08998	216.11463	1351.49916	-483.58988	176.93333	1138.00790	-362.91510	163.22207	1134.95852	-444.20850	194.37330	1068.79433	-470.43986	238.43126	894.19514	-467.91552	199.11395	887.69004	-460.63880	282.60910	965.19276	-60.36662	269.85903	957.26047	-266.77696	300.59849	1000.21946	-75.54774	289.28042	988.73841	-241.55190	
